<svg width="22" height="25" viewBox="0 0 22 25" fill="none" xmlns="http://www.w3.org/2000/svg">
<path fill-rule="evenodd" clip-rule="evenodd" d="M1.00283 5.98262C0.783822 6.50277 0.674316 7.02293 0.674316 7.58414V19.9035C0.674316 20.4648 0.783822 20.9986 1.00283 21.5051C1.20816 21.9978 1.49561 22.4222 1.87888 22.8054C2.26215 23.1887 2.68648 23.4762 3.17926 23.6815C3.69941 23.9005 4.21956 24.01 4.78078 24.01H17.1002C17.6614 24.01 18.1952 23.9005 18.7017 23.6815C19.1945 23.4762 19.6188 23.1887 20.0021 22.8054C20.3853 22.4222 20.6728 21.9978 20.8781 21.5051C21.0971 20.9986 21.2066 20.4648 21.2066 19.9035V7.58414C21.2066 7.02293 21.0971 6.50277 20.8781 5.98262C20.6728 5.48985 20.3853 5.06551 20.0021 4.68224C19.6188 4.29897 19.1945 4.01152 18.7017 3.8062C18.1952 3.58718 17.6614 3.47768 17.1002 3.47768H15.7314V0.740036H12.9937V3.47768H8.88725V0.740036H6.1496V3.47768H4.78078C4.21956 3.47768 3.69941 3.58718 3.17926 3.8062C2.68648 4.01152 2.26215 4.29897 1.87888 4.68224C1.49561 5.06551 1.20816 5.48985 1.00283 5.98262ZM3.80892 6.61228C3.54884 6.88604 3.41196 7.21456 3.41196 7.58414V11.6906H18.469V7.58414C18.469 7.21456 18.3321 6.88604 18.072 6.61228C17.7983 6.3522 17.4698 6.21532 17.1002 6.21532H15.7313V8.95296H12.9937V6.21532H8.88724V8.95296H6.1496V6.21532H4.78078C4.4112 6.21532 4.08268 6.3522 3.80892 6.61228ZM3.41196 19.9035V14.4282H18.469V19.9035C18.469 20.2731 18.3321 20.6016 18.072 20.8754C17.7983 21.1355 17.4698 21.2724 17.1002 21.2724H4.78078C4.4112 21.2724 4.08268 21.1355 3.80892 20.8754C3.54884 20.6016 3.41196 20.2731 3.41196 19.9035Z" fill="#A6A6A6"/>
</svg>
