<svg width="22" height="27" viewBox="0 0 22 27" fill="none" xmlns="http://www.w3.org/2000/svg">
<g clip-path="url(#clip0_1_94)">
<g clip-path="url(#clip1_1_94)">
<path fill-rule="evenodd" clip-rule="evenodd" d="M0.989319 5.93946H21.5216V3.20181H0.989319V5.93946Z" fill="#A6A6A6"/>
<path fill-rule="evenodd" clip-rule="evenodd" d="M7.14904 1.14925C5.26007 1.14925 3.72699 2.68233 3.72699 4.5713C3.72699 6.46027 5.26007 7.99335 7.14904 7.99335C9.03802 7.99335 10.5711 6.46027 10.5711 4.5713C10.5711 2.68233 9.03802 1.14925 7.14904 1.14925Z" fill="#F8FAFD"/>
<path d="M9.16835 2.55232C8.90828 2.29224 8.60713 2.08692 8.26493 1.93635C7.90904 1.78578 7.53945 1.71734 7.15618 1.71734C6.75923 1.71734 6.38964 1.78578 6.03375 1.93635C5.69155 2.08692 5.3904 2.29224 5.13033 2.55232C4.87025 2.81239 4.66493 3.11353 4.51436 3.45574C4.36379 3.81163 4.29535 4.18122 4.29535 4.57817C4.29535 4.96144 4.36379 5.33103 4.51436 5.68692C4.66493 6.02912 4.87025 6.33026 5.13033 6.59034C5.3904 6.85042 5.69155 7.05574 6.03375 7.20631C6.38964 7.35688 6.75923 7.42532 7.15618 7.42532C7.53945 7.42532 7.90904 7.35688 8.26493 7.20631C8.60713 7.05574 8.90828 6.85042 9.16835 6.59034C9.42843 6.33026 9.63375 6.02912 9.78432 5.68692C9.93489 5.33103 10.0033 4.96144 10.0033 4.57817C10.0033 4.18122 9.93489 3.81163 9.78432 3.45574C9.63375 3.11353 9.42843 2.81239 9.16835 2.55232Z" fill="#A6A6A6"/>
<path d="M8.70285 0.895937C8.21007 0.690614 7.68992 0.581108 7.15608 0.581108C6.60855 0.581108 6.0884 0.690614 5.59562 0.895937C5.11653 1.10126 4.6922 1.38871 4.32262 1.74461C3.96672 2.11419 3.67927 2.53852 3.47395 3.01761C3.26862 3.51039 3.15912 4.03054 3.15912 4.57807C3.15912 5.11191 3.26862 5.63206 3.47395 6.12483C3.67927 6.60392 3.96672 7.02826 4.32262 7.39784C4.6922 7.75373 5.11653 8.04118 5.59562 8.24651C6.0884 8.45183 6.60855 8.56134 7.15608 8.56134C7.68992 8.56134 8.21007 8.45183 8.70285 8.24651C9.18193 8.04118 9.60627 7.75373 9.97585 7.39784C10.3317 7.02826 10.6192 6.60392 10.8245 6.12483C11.0298 5.63206 11.1393 5.11191 11.1393 4.57807C11.1393 4.03054 11.0298 3.51039 10.8245 3.01761C10.6192 2.53852 10.3317 2.11419 9.97585 1.74461C9.60627 1.38871 9.18193 1.10126 8.70285 0.895937Z" fill="#A6A6A6"/>
</g>
<g clip-path="url(#clip2_1_94)">
<path fill-rule="evenodd" clip-rule="evenodd" d="M0.989319 23.7341H21.5216V20.9965H0.989319V23.7341Z" fill="#A6A6A6"/>
<path fill-rule="evenodd" clip-rule="evenodd" d="M7.14904 18.9439C5.26007 18.9439 3.72699 20.477 3.72699 22.366C3.72699 24.2549 5.26007 25.788 7.14904 25.788C9.03802 25.788 10.5711 24.2549 10.5711 22.366C10.5711 20.477 9.03802 18.9439 7.14904 18.9439Z" fill="#F8FAFD"/>
<path d="M4.32262 19.5393C3.96672 19.9088 3.67927 20.3332 3.47395 20.8123C3.26862 21.305 3.15912 21.8252 3.15912 22.3727C3.15912 22.9066 3.26862 23.4267 3.47395 23.9195C3.67927 24.3986 3.96672 24.8229 4.32262 25.1925C4.6922 25.5484 5.11653 25.8358 5.59562 26.0412C6.0884 26.2465 6.60855 26.356 7.15608 26.356C7.68992 26.356 8.21007 26.2465 8.70285 26.0412C9.18193 25.8358 9.60627 25.5484 9.97585 25.1925C10.3317 24.8229 10.6192 24.3986 10.8245 23.9195C11.0298 23.4267 11.1393 22.9066 11.1393 22.3727C11.1393 21.8252 11.0298 21.305 10.8245 20.8123C10.6192 20.3332 10.3317 19.9088 9.97585 19.5393C9.60627 19.1834 9.18193 18.8959 8.70285 18.6906C8.21007 18.4853 7.68992 18.3758 7.15608 18.3758C6.60855 18.3758 6.0884 18.4853 5.59562 18.6906C5.11653 18.8959 4.6922 19.1834 4.32262 19.5393Z" fill="#A6A6A6"/>
<path d="M8.26493 19.731C7.90904 19.5804 7.53945 19.512 7.15618 19.512C6.75923 19.512 6.38964 19.5804 6.03375 19.731C5.69155 19.8816 5.3904 20.0869 5.13033 20.347C4.87025 20.607 4.66493 20.9082 4.51436 21.2504C4.36379 21.6063 4.29535 21.9759 4.29535 22.3728C4.29535 22.7561 4.36379 23.1257 4.51436 23.4816C4.66493 23.8238 4.87025 24.1249 5.13033 24.385C5.3904 24.6451 5.69155 24.8504 6.03375 25.001C6.38964 25.1515 6.75923 25.22 7.15618 25.22C7.53945 25.22 7.90904 25.1515 8.26493 25.001C8.60713 24.8504 8.90828 24.6451 9.16835 24.385C9.42843 24.1249 9.63375 23.8238 9.78432 23.4816C9.93489 23.1257 10.0033 22.7561 10.0033 22.3728C10.0033 21.9759 9.93489 21.6063 9.78432 21.2504C9.63375 20.9082 9.42843 20.607 9.16835 20.347C8.90828 20.0869 8.60713 19.8816 8.26493 19.731Z" fill="#A6A6A6"/>
</g>
<g clip-path="url(#clip3_1_94)">
<path fill-rule="evenodd" clip-rule="evenodd" d="M0.989319 12.0993V14.8369H21.5216V12.0993H0.989319Z" fill="#A6A6A6"/>
<path fill-rule="evenodd" clip-rule="evenodd" d="M15.3619 16.8908C17.2509 16.8908 18.784 15.3577 18.784 13.4687C18.784 11.5798 17.2509 10.0467 15.3619 10.0467C13.473 10.0467 11.9399 11.5798 11.9399 13.4687C11.9399 15.3577 13.473 16.8908 15.3619 16.8908Z" fill="#F8FAFD"/>
<path d="M15.3691 16.3229C15.7524 16.3229 16.122 16.2544 16.4779 16.1039C16.8201 15.9533 17.1212 15.748 17.3813 15.4879C17.6414 15.2278 17.8467 14.9267 17.9973 14.5845C18.1478 14.2286 18.2163 13.859 18.2163 13.4757C18.2163 13.0788 18.1478 12.7092 17.9973 12.3533C17.8467 12.0111 17.6414 11.71 17.3813 11.4499C17.1212 11.1898 16.8201 10.9845 16.4779 10.8339C16.122 10.6833 15.7524 10.6149 15.3691 10.6149C14.9722 10.6149 14.6026 10.6833 14.2467 10.8339C13.9045 10.9845 13.6034 11.1898 13.3433 11.4499C13.0832 11.71 12.8779 12.0111 12.7273 12.3533C12.5767 12.7092 12.5083 13.0788 12.5083 13.4757C12.5083 13.859 12.5767 14.2286 12.7273 14.5845C12.8779 14.9267 13.0832 15.2278 13.3433 15.4879C13.6034 15.748 13.9045 15.9533 14.2467 16.1039C14.6026 16.2544 14.9722 16.3229 15.3691 16.3229Z" fill="#A6A6A6"/>
<path d="M15.369 9.47868C14.8215 9.47868 14.3013 9.58818 13.8086 9.7935C13.3295 9.99883 12.9052 10.2863 12.5356 10.6422C12.1797 11.0118 11.8922 11.4361 11.6869 11.9152C11.4816 12.408 11.3721 12.9281 11.3721 13.4756C11.3721 14.0095 11.4816 14.5296 11.6869 15.0224C11.8922 15.5015 12.1797 15.9258 12.5356 16.2954C12.9052 16.6513 13.3295 16.9388 13.8086 17.1441C14.3013 17.3494 14.8215 17.4589 15.369 17.4589C15.9029 17.4589 16.423 17.3494 16.9158 17.1441C17.3949 16.9388 17.8192 16.6513 18.1888 16.2954C18.5447 15.9258 18.8321 15.5015 19.0375 15.0224C19.2428 14.5296 19.3523 14.0095 19.3523 13.4756C19.3523 12.9281 19.2428 12.408 19.0375 11.9152C18.8321 11.4361 18.5447 11.0118 18.1888 10.6422C17.8192 10.2863 17.3949 9.99883 16.9158 9.7935C16.423 9.58818 15.9029 9.47868 15.369 9.47868Z" fill="#A6A6A6"/>
</g>
</g>
<defs>
<clipPath id="clip0_1_94">
<rect width="20.5323" height="25.7749" fill="white" transform="translate(0.989929 0.581177)"/>
</clipPath>
<clipPath id="clip1_1_94">
<rect width="20.5323" height="7.98023" fill="white" transform="translate(0.989624 0.581161)"/>
</clipPath>
<clipPath id="clip2_1_94">
<rect width="20.5323" height="7.98023" fill="white" transform="translate(0.989624 18.3758)"/>
</clipPath>
<clipPath id="clip3_1_94">
<rect width="20.5323" height="7.98023" fill="white" transform="translate(0.989624 9.47849)"/>
</clipPath>
</defs>
</svg>
