<svg width="21" height="21" viewBox="0 0 21 21" fill="none" xmlns="http://www.w3.org/2000/svg">
<g clip-path="url(#clip0_1_85)">
<path fill-rule="evenodd" clip-rule="evenodd" d="M1.40381 2.74158L0.431946 3.71344L3.11484 6.39633L6.30419 0.838919L5.11331 0.154509L2.81369 4.16515L1.40381 2.74158Z" fill="#A6A6A6"/>
<path fill-rule="evenodd" clip-rule="evenodd" d="M1.40399 9.58576L0.432129 10.5576L3.11502 13.2405L6.30437 7.6831L5.1135 6.99869L2.81388 11.0093L1.40399 9.58576Z" fill="#A6A6A6"/>
<path fill-rule="evenodd" clip-rule="evenodd" d="M1.40399 16.4299L0.432129 17.4017L3.11502 20.0846L6.30437 14.5272L5.1135 13.8428L2.81388 17.8534L1.40399 16.4299Z" fill="#A6A6A6"/>
<path fill-rule="evenodd" clip-rule="evenodd" d="M7.76013 4.60058H20.0795V1.86294H7.76013V4.60058Z" fill="#A6A6A6"/>
<path fill-rule="evenodd" clip-rule="evenodd" d="M7.76013 11.4447H20.0795V8.70704H7.76013V11.4447Z" fill="#A6A6A6"/>
<path fill-rule="evenodd" clip-rule="evenodd" d="M7.76013 18.2888H20.0795V15.5511H7.76013V18.2888Z" fill="#A6A6A6"/>
</g>
<defs>
<clipPath id="clip0_1_85">
<rect width="19.6474" height="19.9362" fill="white" transform="translate(0.432373 0.15448)"/>
</clipPath>
</defs>
</svg>
