<svg width="27" height="22" viewBox="0 0 27 22" fill="none" xmlns="http://www.w3.org/2000/svg">
<path d="M19.4886 16.3499L19.8686 15.7807L19.275 15.3844L18.9039 15.9941L19.4886 16.3499ZM24.1836 19.4845L23.8036 20.0537L24.3742 20.4347L24.7538 19.8631L24.1836 19.4845ZM25.3197 17.7735L25.8899 18.1521L26.2673 17.5837L25.7001 17.2045L25.3197 17.7735ZM20.4057 14.4883L19.7622 14.2551L19.5795 14.7593L20.0253 15.0573L20.4057 14.4883ZM20.214 7.23359L20.8446 6.96737L20.8439 6.96573L20.214 7.23359ZM14.9304 1.94994L15.1982 1.32012L15.1966 1.31942L14.9304 1.94994ZM7.21024 1.94994L6.94402 1.31942L6.94239 1.32012L7.21024 1.94994ZM1.92659 7.23359L1.29677 6.96573L1.29608 6.96737L1.92659 7.23359ZM1.92659 14.9537L1.29608 15.22L1.29677 15.2216L1.92659 14.9537ZM7.21024 20.2374L6.94239 20.8672L6.94402 20.8679L7.21024 20.2374ZM14.9304 20.2374L15.1966 20.8679L15.1982 20.8672L14.9304 20.2374ZM19.1085 16.9191L23.8036 20.0537L24.5637 18.9153L19.8686 15.7807L19.1085 16.9191ZM24.7538 19.8631L25.8899 18.1521L24.7496 17.3949L23.6135 19.1059L24.7538 19.8631ZM25.7001 17.2045L20.7861 13.9194L20.0253 15.0573L24.9394 18.3425L25.7001 17.2045ZM21.0491 14.7216C21.4741 13.5493 21.6787 12.3477 21.6787 11.0937H20.3099C20.3099 12.194 20.1312 13.2373 19.7622 14.2551L21.0491 14.7216ZM21.6787 11.0937C21.6787 9.66107 21.4004 8.28383 20.8446 6.96737L19.5835 7.4998C20.068 8.64722 20.3099 9.84337 20.3099 11.0937H21.6787ZM20.8439 6.96573C20.3046 5.69782 19.5582 4.56956 18.5763 3.58766L17.6084 4.55556C18.4607 5.40788 19.1105 6.3876 19.5842 7.50144L20.8439 6.96573ZM18.5763 3.58766C17.5944 2.60576 16.4662 1.85934 15.1982 1.32012L14.6625 2.57976C15.7764 3.05346 16.7561 3.70324 17.6084 4.55556L18.5763 3.58766ZM15.1966 1.31942C13.8802 0.763586 12.5029 0.485298 11.0703 0.485298V1.85412C12.3206 1.85412 13.5168 2.09598 14.6642 2.58045L15.1966 1.31942ZM11.0703 0.485298C9.63772 0.485298 8.26048 0.763586 6.94402 1.31942L7.47646 2.58045C8.62388 2.09598 9.82002 1.85412 11.0703 1.85412V0.485298ZM6.94239 1.32012C5.67448 1.85934 4.54621 2.60576 3.56431 3.58766L4.53221 4.55556C5.38454 3.70324 6.36425 3.05346 7.47809 2.57976L6.94239 1.32012ZM3.56431 3.58766C2.58241 4.56956 1.836 5.69782 1.29677 6.96573L2.55641 7.50144C3.03011 6.3876 3.67989 5.40788 4.53221 4.55556L3.56431 3.58766ZM1.29608 6.96737C0.74024 8.28383 0.461952 9.66106 0.461952 11.0937H1.83077C1.83077 9.84337 2.07264 8.64722 2.5571 7.4998L1.29608 6.96737ZM0.461952 11.0937C0.461952 12.5263 0.74024 13.9035 1.29608 15.22L2.5571 14.6875C2.07264 13.5401 1.83077 12.344 1.83077 11.0937H0.461952ZM1.29677 15.2216C1.836 16.4895 2.58241 17.6178 3.56431 18.5997L4.53221 17.6318C3.67989 16.7794 3.03011 15.7997 2.55641 14.6859L1.29677 15.2216ZM3.56431 18.5997C4.54621 19.5816 5.67448 20.328 6.94239 20.8672L7.47809 19.6076C6.36425 19.1339 5.38454 18.4841 4.53221 17.6318L3.56431 18.5997ZM6.94402 20.8679C8.26048 21.4237 9.63772 21.702 11.0703 21.702V20.3332C9.82002 20.3332 8.62388 20.0913 7.47646 19.6069L6.94402 20.8679ZM11.0703 21.702C12.5029 21.702 13.8802 21.4237 15.1966 20.8679L14.6642 19.6069C13.5168 20.0913 12.3206 20.3332 11.0703 20.3332V21.702ZM15.1982 20.8672C16.4662 20.328 17.5944 19.5816 18.5763 18.5997L17.6084 17.6318C16.7561 18.4841 15.7764 19.1339 14.6625 19.6076L15.1982 20.8672ZM18.5763 18.5997C19.1604 18.0155 19.6602 17.3843 20.0732 16.7058L18.9039 15.9941C18.5504 16.5749 18.1194 17.1208 17.6084 17.6318L18.5763 18.5997Z" fill="#930FFC"/>
</svg>
